<?xml version="1.0" encoding="UTF-8" standalone="no"?>
<!-- Created with Inkscape (http://www.inkscape.org/) -->

<svg
   width="30.512871mm"
   height="31.202829mm"
   viewBox="0 0 30.512871 31.202829"
   version="1.1"
   id="svg151328"
   xmlns="http://www.w3.org/2000/svg"
   xmlns:svg="http://www.w3.org/2000/svg">
  <defs
     id="defs151325" />
  <g
     id="layer1"
     transform="translate(-118.22671,-57.072733)">
    <g
       aria-label="smart
aqua
culture"
       id="text1612-4-1-8-6-6"
       style="font-size:10.5833px;stroke-width:0.264583">
      <path
         d="m 123.37368,63.720389 q 0,1.296045 -1.04799,1.885156 -0.54571,0.303857 -1.48208,0.303857 -1.14722,0 -1.74253,-0.384472 -0.68213,-0.446485 -0.87437,-1.506885 l 1.84175,-0.223242 q 0.21704,0.79375 0.86816,0.79375 0.29766,0 0.5023,-0.142627 0.23564,-0.167432 0.23564,-0.452686 0,-0.260449 -0.21084,-0.403076 -0.14882,-0.09922 -0.79375,-0.248047 -0.85576,-0.192236 -1.12241,-0.303857 -0.57051,-0.241846 -0.85576,-0.731738 -0.25425,-0.446485 -0.25425,-1.010791 0,-1.271241 1.0418,-1.748731 0.48989,-0.223242 1.30845,-0.223242 0.70073,0 1.0852,0.111621 0.5457,0.155029 0.88057,0.595313 0.27285,0.359668 0.45888,0.979785 l -1.76113,0.223242 q -0.14263,-0.63252 -0.75654,-0.63252 -0.60152,0 -0.60152,0.496094 0,0.297656 0.35967,0.434082 0.14883,0.06201 0.61392,0.130225 0.78135,0.117822 1.18442,0.285254 0.60772,0.260449 0.88677,0.787549 0.23564,0.446484 0.23564,0.985986 z m -0.78134,-3.261817 q 0,-0.192236 -0.14263,-0.32246 -0.14263,-0.136426 -0.34106,-0.136426 -0.19844,0 -0.34107,0.136426 -0.14263,0.130224 -0.14263,0.32246 0,0.186036 0.14263,0.322461 0.14263,0.136426 0.34107,0.136426 0.19843,0 0.34106,-0.136426 0.14263,-0.136425 0.14263,-0.322461 z m -1.5565,-0.564306 q 0,-0.179834 -0.21704,-0.179834 -0.22324,0 -0.22324,0.179834 0,0.173633 0.22324,0.173633 0.21704,0 0.21704,-0.173633 z m 1.41387,2.511474 q 0,-0.148828 -0.14263,-0.148828 -0.14262,0 -0.14262,0.148828 0,0.15503 0.14262,0.15503 0.14263,0 0.14263,-0.15503 z m -2.39985,-2.052587 q 0,-0.235645 -0.24185,-0.235645 -0.24805,0 -0.24805,0.235645 0,0.235644 0.24805,0.235644 0.24185,0 0.24185,-0.235644 z m 2.49287,2.877343 q 0,-0.390674 -0.37827,-0.390674 -0.37207,0 -0.37207,0.390674 0,0.384473 0.37207,0.384473 0.37827,0 0.37827,-0.384473 z m -1.12862,-0.880566 q 0,-0.328662 -0.32866,-0.328662 -0.32866,0 -0.32866,0.328662 0,0.328662 0.32866,0.328662 0.32866,0 0.32866,-0.328662 z m -2.1146,-1.190625 q 0,-0.291455 -0.29145,-0.291455 -0.29766,0 -0.29766,0.291455 0,0.297656 0.29766,0.297656 0.29145,0 0.29145,-0.297656 z m 3.38584,3.44165 q 0,-0.279053 -0.29765,-0.279053 -0.29146,0 -0.29146,0.279053 0,0.285254 0.29146,0.285254 0.29765,0 0.29765,-0.285254 z m -2.51767,-2.59209 q 0,-0.434082 -0.39688,-0.434082 -0.39687,0 -0.39687,0.434082 0,0.434082 0.39687,0.434082 0.39688,0 0.39688,-0.434082 z m 0.58911,0.985987 q 0,-0.223242 -0.24805,-0.223242 -0.24184,0 -0.24184,0.223242 0,0.223242 0.24184,0.223242 0.24805,0 0.24805,-0.223242 z m 0.89297,2.033984 q 0,-0.09922 -0.0806,-0.09922 -0.0806,0 -0.0806,0.09922 0,0.09302 0.0806,0.09302 0.0806,0 0.0806,-0.09302 z m -0.35347,0.409277 q 0,-0.248046 -0.21084,-0.248046 -0.21084,0 -0.21084,0.248046 0,0.248047 0.21084,0.248047 0.21084,0 0.21084,-0.248047 z m -1.26504,-0.564306 q 0,-0.229444 -0.18603,-0.390674 -0.17984,-0.161231 -0.44029,-0.161231 -0.25424,0 -0.44028,0.161231 -0.17983,0.16123 -0.17983,0.390674 0,0.229443 0.17983,0.390674 0.18604,0.16123 0.44028,0.16123 0.26045,0 0.44029,-0.16123 0.18603,-0.161231 0.18603,-0.390674 z"
         style="-inkscape-font-specification:HOLE"
         id="path151414" />
      <path
         d="m 132.54522,65.760574 h -1.86035 v -3.584277 q 0,-0.415478 -0.12403,-0.632519 -0.19223,-0.328663 -0.46509,-0.328663 -0.73173,0 -0.73173,1.296045 v 3.249414 h -1.86035 v -3.466455 q 0,-0.415478 -0.0372,-0.564306 -0.13023,-0.5271 -0.54571,-0.5271 -0.73173,0 -0.73173,1.345654 v 3.212207 h -1.85415 v -6.294189 h 1.73012 v 0.917773 q 0.68833,-1.0604 1.67432,-1.0604 1.0356,0 1.46348,1.0604 0.39687,-0.551904 0.70693,-0.768945 0.40308,-0.291455 0.97978,-0.291455 1.65572,0 1.65572,2.48667 z m -1.01079,-5.835302 q 0,-0.235645 -0.21084,-0.235645 -0.21084,0 -0.21084,0.235645 0,0.229443 0.21084,0.229443 0.21084,0 0.21084,-0.229443 z m 0.58291,1.283642 q 0,-0.341064 -0.38448,-0.341064 -0.39067,0 -0.39067,0.341064 0,0.334864 0.39067,0.334864 0.38448,0 0.38448,-0.334864 z m -2.00918,-0.74414 q 0,-0.192237 -0.14263,-0.192237 -0.14883,0 -0.14883,0.192237 0,0.192236 0.14883,0.192236 0.14263,0 0.14263,-0.192236 z m 2.04638,2.257226 q 0,-0.26665 -0.27905,-0.26665 -0.27905,0 -0.27905,0.26665 0,0.272852 0.27905,0.272852 0.27905,0 0.27905,-0.272852 z m -0.71313,-0.502295 q 0,-0.173633 -0.12402,-0.173633 -0.13023,0 -0.13023,0.173633 0,0.173633 0.13023,0.173633 0.12402,0 0.12402,-0.173633 z m -2.45566,-1.804541 q 0,-0.235644 -0.10542,-0.403076 -0.10542,-0.167432 -0.26045,-0.167432 -0.14883,0 -0.26045,0.167432 -0.10542,0.167432 -0.10542,0.403076 0,0.235645 0.10542,0.403076 0.11162,0.167432 0.26045,0.167432 0.15503,0 0.26045,-0.167432 0.10542,-0.167431 0.10542,-0.403076 z m 3.46025,4.185791 q 0,-0.303857 -0.19844,-0.520898 -0.19223,-0.217041 -0.47129,-0.217041 -0.27285,0 -0.47129,0.217041 -0.19223,0.217041 -0.19223,0.520898 0,0.303858 0.19223,0.520899 0.19844,0.210839 0.47129,0.210839 0.27906,0 0.47129,-0.210839 0.19844,-0.217041 0.19844,-0.520899 z m -4.90513,-3.826123 q 0,-0.272851 -0.39067,-0.272851 -0.38447,0 -0.38447,0.272851 0,0.266651 0.38447,0.266651 0.39067,0 0.39067,-0.266651 z m 1.35186,1.494483 q 0,-0.186036 -0.14263,-0.31626 -0.14263,-0.136426 -0.34106,-0.136426 -0.19844,0 -0.34107,0.136426 -0.14263,0.130224 -0.14263,0.31626 0,0.192236 0.14263,0.322461 0.14263,0.130224 0.34107,0.130224 0.19843,0 0.34106,-0.130224 0.14263,-0.130225 0.14263,-0.322461 z m -0.54571,1.22163 q 0,-0.09302 -0.10542,-0.09302 -0.10542,0 -0.10542,0.09302 0,0.08682 0.10542,0.08682 0.10542,0 0.10542,-0.08682 z m 0.56431,0.520899 q 0,-0.241846 -0.23564,-0.241846 -0.22945,0 -0.22945,0.241846 0,0.241846 0.22945,0.241846 0.23564,0 0.23564,-0.241846 z m -3.24941,-3.528467 q 0,-0.204639 -0.16743,-0.353467 -0.16124,-0.148828 -0.39688,-0.148828 -0.24185,0 -0.40928,0.148828 -0.16123,0.148828 -0.16123,0.353467 0,0.21084 0.16123,0.359668 0.16743,0.142627 0.40928,0.142627 0.23564,0 0.39688,-0.142627 0.16743,-0.148828 0.16743,-0.359668 z m 3.34243,4.557861 q 0,-0.136425 -0.0868,-0.136425 -0.0868,0 -0.0868,0.136425 0,0.136426 0.0868,0.136426 0.0868,0 0.0868,-0.136426 z m -3.24321,-2.821533 q 0,-0.328662 -0.34727,-0.328662 -0.34727,0 -0.34727,0.328662 0,0.328662 0.34727,0.328662 0.34727,0 0.34727,-0.328662 z m 2.62929,3.075781 q 0,-0.328662 -0.31006,-0.328662 -0.31005,0 -0.31005,0.328662 0,0.328663 0.31005,0.328663 0.31006,0 0.31006,-0.328663 z m -2.97656,-1.575097 q 0,-0.241846 -0.22944,-0.241846 -0.23565,0 -0.23565,0.241846 0,0.241846 0.23565,0.241846 0.22944,0 0.22944,-0.241846 z m 0.55811,0.948779 q 0,-0.186035 -0.15503,-0.186035 -0.15503,0 -0.15503,0.186035 0,0.179834 0.15503,0.179834 0.15503,0 0.15503,-0.179834 z m -0.65733,0.595313 q 0,-0.297657 -0.32866,-0.297657 -0.32866,0 -0.32866,0.297657 0,0.297656 0.32866,0.297656 0.32866,0 0.32866,-0.297656 z"
         style="-inkscape-font-specification:HOLE"
         id="path151416" />
      <path
         d="m 138.99444,65.760574 h -1.74253 q -0.15503,-0.353466 -0.20464,-0.768945 -0.36587,0.458887 -0.71934,0.651123 -0.48989,0.260449 -1.14722,0.260449 -0.81855,0 -1.28984,-0.489892 -0.47129,-0.496094 -0.47129,-1.314649 0,-0.799951 0.37207,-1.240234 0.35347,-0.42168 1.14102,-0.626318 0.76274,-0.198438 1.02939,-0.285254 0.56431,-0.173633 0.98599,-0.384473 0,-0.409277 -0.11782,-0.58291 -0.14263,-0.217041 -0.5209,-0.217041 -0.45889,0 -0.68833,0.186035 -0.17363,0.148828 -0.28526,0.558105 l -1.77353,-0.241845 q 0.17983,-1.085205 0.83716,-1.556494 0.5333,-0.384473 1.66811,-0.384473 0.77515,0 1.17202,0.08682 0.65113,0.136426 1.01079,0.545704 0.5085,0.576709 0.5085,1.686718 v 2.778125 q 0,0.713135 0.23565,1.339453 z m -1.24024,-5.636865 q 0,-0.198437 -0.27285,-0.198437 -0.26665,0 -0.26665,0.198437 0,0.204639 0.26665,0.204639 0.27285,0 0.27285,-0.204639 z m 0.48369,0.613916 q 0,-0.155029 -0.14883,-0.155029 -0.14262,0 -0.14262,0.155029 0,0.155029 0.14262,0.155029 0.14883,0 0.14883,-0.155029 z m 0.13643,0.886768 q 0,-0.198438 -0.16123,-0.341065 -0.15503,-0.142627 -0.37207,-0.142627 -0.22324,0 -0.37827,0.142627 -0.15503,0.142627 -0.15503,0.341065 0,0.198437 0.15503,0.341064 0.15503,0.142627 0.37827,0.142627 0.21704,0 0.37207,-0.142627 0.16123,-0.142627 0.16123,-0.341064 z m -1.5689,-1.401465 q 0,-0.179834 -0.15503,-0.303857 -0.15503,-0.130225 -0.37207,-0.130225 -0.22324,0 -0.37827,0.130225 -0.15503,0.124023 -0.15503,0.303857 0,0.179834 0.15503,0.310059 0.15503,0.124023 0.37827,0.124023 0.21704,0 0.37207,-0.124023 0.15503,-0.130225 0.15503,-0.310059 z m -1.35185,-0.272852 q 0,-0.16123 -0.17364,-0.16123 -0.17363,0 -0.17363,0.16123 0,0.167432 0.17363,0.167432 0.17364,0 0.17364,-0.167432 z m 2.45566,3.218409 q 0,-0.248047 -0.32246,-0.248047 -0.31626,0 -0.31626,0.248047 0,0.254248 0.31626,0.254248 0.32246,0 0.32246,-0.254248 z m -1.31465,-0.799952 q 0,-0.204638 -0.20464,-0.204638 -0.19843,0 -0.19843,0.204638 0,0.204639 0.19843,0.204639 0.20464,0 0.20464,-0.204639 z m -1.73633,-1.661914 q 0,-0.378271 -0.35966,-0.378271 -0.35967,0 -0.35967,0.378271 0,0.378272 0.35967,0.378272 0.35966,0 0.35966,-0.378272 z m 3.78272,3.962549 q 0,-0.223242 -0.15503,-0.378271 -0.14883,-0.15503 -0.36587,-0.15503 -0.21704,0 -0.37207,0.15503 -0.14883,0.155029 -0.14883,0.378271 0,0.217041 0.14883,0.37207 0.15503,0.15503 0.37207,0.15503 0.21704,0 0.36587,-0.15503 0.15503,-0.155029 0.15503,-0.37207 z m -1.69292,-1.506885 V 62.77161 q -0.35347,0.167431 -0.79995,0.316259 -0.86817,0.297657 -0.86817,0.830957 0,0.644922 0.60152,0.644922 0.68833,0 0.95498,-0.669726 0.11162,-0.285254 0.11162,-0.731739 z m -1.66812,-0.06201 q 0,-0.353467 -0.39687,-0.353467 -0.39688,0 -0.39688,0.353467 0,0.359668 0.39688,0.359668 0.39687,0 0.39687,-0.359668 z m 1.17823,1.903759 q 0,-0.173632 -0.17364,-0.173632 -0.17363,0 -0.17363,0.173632 0,0.173633 0.17363,0.173633 0.17364,0 0.17364,-0.173633 z m -1.19683,-0.204638 q 0,-0.21084 -0.14883,-0.359668 -0.14263,-0.148828 -0.35346,-0.148828 -0.21084,0 -0.35967,0.148828 -0.14263,0.148828 -0.14263,0.359668 0,0.217041 0.14263,0.365869 0.14883,0.148828 0.35967,0.148828 0.21083,0 0.35346,-0.148828 0.14883,-0.148828 0.14883,-0.365869 z"
         style="-inkscape-font-specification:HOLE"
         id="path151418" />
      <path
         d="m 143.78794,59.658621 -0.57671,1.717725 q -0.32866,-0.179834 -0.5209,-0.179834 -0.84956,0 -0.84956,2.455664 v 2.108398 h -1.86655 v -6.294189 h 1.73633 v 1.035596 q 0.44028,-1.178223 1.17822,-1.178223 0.40928,0 0.89917,0.334863 z m -0.59531,0.868164 q 0,-0.316259 -0.28525,-0.316259 -0.27906,0 -0.27906,0.316259 0,0.31626 0.27906,0.31626 0.28525,0 0.28525,-0.31626 z m -0.94258,0.496094 q 0,-0.155029 -0.14883,-0.155029 -0.15503,0 -0.15503,0.155029 0,0.148828 0.15503,0.148828 0.14883,0 0.14883,-0.148828 z m -0.81855,-0.651123 q 0,-0.21084 -0.14883,-0.359668 -0.14883,-0.155029 -0.35967,-0.155029 -0.21084,0 -0.35967,0.155029 -0.14262,0.148828 -0.14262,0.359668 0,0.217041 0.14262,0.37207 0.14883,0.148828 0.35967,0.148828 0.21084,0 0.35967,-0.148828 0.14883,-0.155029 0.14883,-0.37207 z m 0.25424,1.885156 q 0,-0.229443 -0.18603,-0.384472 -0.17983,-0.161231 -0.43408,-0.161231 -0.26045,0 -0.44649,0.161231 -0.17983,0.155029 -0.17983,0.384472 0,0.223242 0.17983,0.384473 0.18604,0.155029 0.44649,0.155029 0.25425,0 0.43408,-0.155029 0.18603,-0.161231 0.18603,-0.384473 z m -0.16123,1.407666 q 0,-0.21084 -0.19843,-0.21084 -0.20464,0 -0.20464,0.21084 0,0.21084 0.20464,0.21084 0.19843,0 0.19843,-0.21084 z m -0.42168,1.277442 q 0,-0.291455 -0.34106,-0.291455 -0.34106,0 -0.34106,0.291455 0,0.297656 0.34106,0.297656 0.34106,0 0.34106,-0.297656 z"
         style="-inkscape-font-specification:HOLE"
         id="path151420" />
      <path
         d="m 148.51323,65.704764 q -0.68833,0.198437 -1.28364,0.198437 -0.60771,0 -0.94258,-0.186035 -0.38447,-0.21084 -0.5643,-0.750342 -0.16123,-0.471289 -0.16123,-1.525488 v -2.213818 h -0.68213 v -1.761133 h 0.68213 v -1.153418 l 1.86035,-1.240234 v 2.393652 h 1.02319 v 1.761133 h -1.02319 v 2.232422 q 0,0.403076 0.062,0.5333 0.093,0.204639 0.31626,0.204639 0.20464,0 0.57671,-0.155029 z m -1.45727,-7.056934 q 0,-0.198437 -0.13023,-0.341064 -0.13022,-0.142627 -0.31626,-0.142627 -0.18603,0 -0.31626,0.142627 -0.13022,0.142627 -0.13022,0.341064 0,0.198438 0.13022,0.341065 0.13023,0.142627 0.31626,0.142627 0.18604,0 0.31626,-0.142627 0.13023,-0.142627 0.13023,-0.341065 z m 1.01079,1.891358 q 0,-0.26045 -0.26045,-0.26045 -0.25425,0 -0.25425,0.26045 0,0.260449 0.25425,0.260449 0.26045,0 0.26045,-0.260449 z m -1.10381,-0.5271 q 0,-0.223242 -0.22324,-0.223242 -0.22324,0 -0.22324,0.223242 0,0.223242 0.22324,0.223242 0.22324,0 0.22324,-0.223242 z m -0.73174,0.68833 q 0,-0.173633 -0.13642,-0.297656 -0.13643,-0.124024 -0.32867,-0.124024 -0.19843,0 -0.33486,0.124024 -0.13642,0.124023 -0.13642,0.297656 0,0.179834 0.13642,0.303858 0.13643,0.124023 0.33486,0.124023 0.19224,0 0.32867,-0.124023 0.13642,-0.124024 0.13642,-0.303858 z m 0.56431,1.32085 q 0,-0.310059 -0.29146,-0.310059 -0.29145,0 -0.29145,0.310059 0,0.303857 0.29145,0.303857 0.29146,0 0.29146,-0.303857 z m 0.0496,1.370459 q 0,-0.223242 -0.16743,-0.223242 -0.16123,0 -0.16123,0.223242 0,0.223242 0.16123,0.223242 0.16743,0 0.16743,-0.223242 z m 0.93638,1.717724 q 0,-0.241845 -0.16744,-0.409277 -0.16743,-0.167432 -0.40307,-0.167432 -0.24185,0 -0.40928,0.167432 -0.16743,0.167432 -0.16743,0.409277 0,0.235645 0.16743,0.409278 0.16743,0.167431 0.40928,0.167431 0.23564,0 0.40307,-0.167431 0.16744,-0.173633 0.16744,-0.409278 z"
         style="-inkscape-font-specification:HOLE"
         id="path151422" />
      <path
         d="m 125.38441,77.020962 h -2.17816 q -0.19378,-0.441833 -0.2558,-0.961181 -0.45733,0.573608 -0.89917,0.813904 -0.61236,0.325561 -1.43402,0.325561 -1.02319,0 -1.6123,-0.612366 -0.58911,-0.620117 -0.58911,-1.64331 0,-0.999939 0.46509,-1.550293 0.44183,-0.5271 1.42627,-0.782898 0.95343,-0.248047 1.28674,-0.356568 0.70538,-0.217041 1.23248,-0.48059 0,-0.511597 -0.14728,-0.728638 -0.17828,-0.271301 -0.65112,-0.271301 -0.57361,0 -0.86041,0.232544 -0.21704,0.186035 -0.35657,0.697631 l -2.21692,-0.302307 q 0.22479,-1.356506 1.04645,-1.945617 0.66663,-0.480591 2.08514,-0.480591 0.96894,0 1.46503,0.10852 0.8139,0.170533 1.26349,0.682129 0.63562,0.720886 0.63562,2.108399 v 3.472656 q 0,0.891418 0.29455,1.674316 z m -1.55029,-7.046081 q 0,-0.248047 -0.34106,-0.248047 -0.33332,0 -0.33332,0.248047 0,0.255798 0.33332,0.255798 0.34106,0 0.34106,-0.255798 z m 0.60462,0.767395 q 0,-0.193787 -0.18604,-0.193787 -0.17828,0 -0.17828,0.193787 0,0.193786 0.17828,0.193786 0.18604,0 0.18604,-0.193786 z m 0.17053,1.108459 q 0,-0.248047 -0.20154,-0.42633 -0.19379,-0.178284 -0.46509,-0.178284 -0.27905,0 -0.47284,0.178284 -0.19378,0.178283 -0.19378,0.42633 0,0.248047 0.19378,0.426331 0.19379,0.178284 0.47284,0.178284 0.2713,0 0.46509,-0.178284 0.20154,-0.178284 0.20154,-0.426331 z m -1.96112,-1.751831 q 0,-0.224792 -0.19379,-0.379822 -0.19379,-0.16278 -0.46509,-0.16278 -0.27905,0 -0.47284,0.16278 -0.19378,0.15503 -0.19378,0.379822 0,0.224793 0.19378,0.387573 0.19379,0.15503 0.47284,0.15503 0.2713,0 0.46509,-0.15503 0.19379,-0.16278 0.19379,-0.387573 z m -1.68982,-0.341064 q 0,-0.201538 -0.21704,-0.201538 -0.21704,0 -0.21704,0.201538 0,0.209289 0.21704,0.209289 0.21704,0 0.21704,-0.209289 z m 3.06958,4.02301 q 0,-0.310059 -0.40308,-0.310059 -0.39532,0 -0.39532,0.310059 0,0.31781 0.39532,0.31781 0.40308,0 0.40308,-0.31781 z m -1.64331,-0.999939 q 0,-0.255798 -0.2558,-0.255798 -0.24805,0 -0.24805,0.255798 0,0.255798 0.24805,0.255798 0.2558,0 0.2558,-0.255798 z m -2.17041,-2.077393 q 0,-0.472839 -0.44959,-0.472839 -0.44958,0 -0.44958,0.472839 0,0.47284 0.44958,0.47284 0.44959,0 0.44959,-0.47284 z m 4.72839,4.953187 q 0,-0.279053 -0.19379,-0.47284 -0.18603,-0.193786 -0.45733,-0.193786 -0.2713,0 -0.46509,0.193786 -0.18603,0.193787 -0.18603,0.47284 0,0.271301 0.18603,0.465087 0.19379,0.193787 0.46509,0.193787 0.2713,0 0.45733,-0.193787 0.19379,-0.193786 0.19379,-0.465087 z m -2.11615,-1.883606 v -0.488343 q -0.44183,0.20929 -0.99994,0.395325 -1.0852,0.37207 -1.0852,1.038696 0,0.806153 0.75189,0.806153 0.86041,0 1.19372,-0.837159 0.13953,-0.356567 0.13953,-0.914672 z m -2.08514,-0.07752 q 0,-0.441834 -0.4961,-0.441834 -0.49609,0 -0.49609,0.441834 0,0.449585 0.49609,0.449585 0.4961,0 0.4961,-0.449585 z m 1.47278,2.3797 q 0,-0.217041 -0.21705,-0.217041 -0.21704,0 -0.21704,0.217041 0,0.217041 0.21704,0.217041 0.21705,0 0.21705,-0.217041 z m -1.49604,-0.255799 q 0,-0.26355 -0.18603,-0.449585 -0.17829,-0.186035 -0.44184,-0.186035 -0.26355,0 -0.44958,0.186035 -0.17828,0.186035 -0.17828,0.449585 0,0.271302 0.17828,0.457337 0.18603,0.186035 0.44958,0.186035 0.26355,0 0.44184,-0.186035 0.18603,-0.186035 0.18603,-0.457337 z"
         style="-inkscape-font-specification:HOLE"
         id="path151424" />
      <path
         d="m 132.9576,80.013028 h -2.34095 v -3.751709 q -0.68988,0.937927 -1.76733,0.937927 -1.36426,0 -2.03864,-1.403015 -0.51159,-1.069702 -0.51159,-2.588989 0,-2.713013 1.24798,-3.743958 0.58911,-0.488342 1.2945,-0.488342 0.61236,0 1.12396,0.348816 0.37207,0.255798 0.82166,0.992187 v -1.162719 h 2.17041 z m -1.0387,-10.162171 q 0,-0.294555 -0.34882,-0.294555 -0.34881,0 -0.34881,0.294555 0,0.294556 0.34881,0.294556 0.34882,0 0.34882,-0.294556 z m 0.91467,1.395264 q 0,-0.279053 -0.19378,-0.472839 -0.19379,-0.193787 -0.46509,-0.193787 -0.27905,0 -0.47284,0.193787 -0.19379,0.193786 -0.19379,0.472839 0,0.271301 0.19379,0.465088 0.19379,0.193787 0.47284,0.193787 0.2713,0 0.46509,-0.193787 0.19378,-0.193787 0.19378,-0.465088 z m -3.02307,-1.015442 q 0,-0.294556 -0.23254,-0.496094 -0.2248,-0.209289 -0.55036,-0.209289 -0.31781,0 -0.55035,0.209289 -0.22479,0.201538 -0.22479,0.496094 0,0.294556 0.22479,0.503845 0.23254,0.201538 0.55035,0.201538 0.32556,0 0.55036,-0.201538 0.23254,-0.209289 0.23254,-0.503845 z m 1.79059,2.875794 q 0,-0.31781 -0.32556,-0.31781 -0.32556,0 -0.32556,0.31781 0,0.325561 0.32556,0.325561 0.32556,0 0.32556,-0.325561 z m -0.96893,0.0078 q 0,-1.922363 -1.0387,-1.922363 -0.97668,0 -0.97668,1.945617 0,1.806092 0.95343,1.806092 1.06195,0 1.06195,-1.829346 z m 2.05413,2.604492 q 0,-0.279052 -0.23254,-0.472839 -0.22479,-0.201538 -0.5426,-0.201538 -0.32556,0 -0.55811,0.201538 -0.22479,0.193787 -0.22479,0.472839 0,0.279053 0.22479,0.480591 0.23255,0.201538 0.55811,0.201538 0.31781,0 0.5426,-0.201538 0.23254,-0.201538 0.23254,-0.480591 z m -4.92993,-4.387329 q 0,-0.395325 -0.41858,-0.395325 -0.41082,0 -0.41082,0.395325 0,0.395325 0.41082,0.395325 0.41858,0 0.41858,-0.395325 z m 0.40308,0.79065 q 0,-0.217041 -0.18604,-0.217041 -0.19378,0 -0.19378,0.217041 0,0.224792 0.19378,0.224792 0.18604,0 0.18604,-0.224792 z m -0.49609,0.573608 q 0,-0.232544 -0.23255,-0.232544 -0.24029,0 -0.24029,0.232544 0,0.232544 0.24029,0.232544 0.23255,0 0.23255,-0.232544 z m 2.58898,3.085083 q 0,-0.294556 -0.32556,-0.294556 -0.32556,0 -0.32556,0.294556 0,0.294556 0.32556,0.294556 0.32556,0 0.32556,-0.294556 z M 128.485,74.168423 q 0,-0.310058 -0.24029,-0.519348 -0.23255,-0.217041 -0.56586,-0.217041 -0.33331,0 -0.57361,0.217041 -0.23254,0.20929 -0.23254,0.519348 0,0.302307 0.23254,0.519348 0.2403,0.20929 0.57361,0.20929 0.33331,0 0.56586,-0.20929 0.24029,-0.217041 0.24029,-0.519348 z m 4.2323,4.449341 q 0,-0.410828 -0.24029,-0.697632 -0.23255,-0.286804 -0.56586,-0.286804 -0.34107,0 -0.58136,0.286804 -0.23255,0.286804 -0.23255,0.697632 0,0.403076 0.23255,0.68988 0.24029,0.286805 0.58136,0.286805 0.33331,0 0.56586,-0.286805 0.24029,-0.286804 0.24029,-0.68988 z m -3.64319,-2.635498 q 0,-0.26355 -0.20929,-0.26355 -0.20154,0 -0.20154,0.26355 0,0.271301 0.20154,0.271301 0.20929,0 0.20929,-0.271301 z"
         style="-inkscape-font-specification:HOLE"
         id="path151426" />
      <path
         d="m 140.71681,77.020962 h -2.16266 v -1.27124 q -0.45733,0.728638 -0.89142,1.054199 -0.5426,0.395325 -1.30224,0.395325 -2.04639,0 -2.04639,-3.038574 v -5.007446 h 2.33319 v 4.325317 q 0,1.364258 0.80616,1.364258 0.94567,0 0.94567,-1.899109 v -3.790466 h 2.31769 z m -0.45733,-7.232116 q 0,-0.178284 -0.18604,-0.178284 -0.19379,0 -0.19379,0.178284 0,0.178283 0.19379,0.178283 0.18604,0 0.18604,-0.178283 z m -0.29456,0.937927 q 0,-0.410828 -0.37982,-0.410828 -0.37982,0 -0.37982,0.410828 0,0.410828 0.37982,0.410828 0.37982,0 0.37982,-0.410828 z m 0.031,1.658813 q 0,-0.511596 -0.45734,-0.511596 -0.44959,0 -0.44959,0.511596 0,0.519349 0.44959,0.519349 0.45734,0 0.45734,-0.519349 z m 0.20929,1.441773 q 0,-0.248047 -0.19379,-0.248047 -0.19379,0 -0.19379,0.248047 0,0.248047 0.19379,0.248047 0.19379,0 0.19379,-0.248047 z m -3.79047,-3.449402 q 0,-0.279053 -0.19379,-0.472839 -0.19378,-0.201538 -0.46509,-0.201538 -0.27905,0 -0.47283,0.201538 -0.19379,0.193786 -0.19379,0.472839 0,0.279053 0.19379,0.480591 0.19378,0.193786 0.47283,0.193786 0.27131,0 0.46509,-0.193786 0.19379,-0.201538 0.19379,-0.480591 z m 4.02301,5.270996 q 0,-0.310059 -0.20154,-0.5271 -0.19379,-0.224792 -0.47284,-0.224792 -0.27905,0 -0.48059,0.224792 -0.19379,0.217041 -0.19379,0.5271 0,0.310059 0.19379,0.534851 0.20154,0.217041 0.48059,0.217041 0.27905,0 0.47284,-0.217041 0.20154,-0.224792 0.20154,-0.534851 z m -4.81366,-3.844727 q 0,-0.310058 -0.32556,-0.310058 -0.32556,0 -0.32556,0.310058 0,0.302308 0.32556,0.302308 0.32556,0 0.32556,-0.302308 z m 0.72864,1.674317 q 0,-0.302307 -0.20929,-0.511597 -0.20929,-0.209289 -0.50385,-0.209289 -0.3023,0 -0.51159,0.209289 -0.20929,0.20929 -0.20929,0.511597 0,0.294556 0.20929,0.503845 0.20929,0.20929 0.51159,0.20929 0.29456,0 0.50385,-0.20929 0.20929,-0.209289 0.20929,-0.503845 z m 1.44177,2.085144 q 0,-0.193787 -0.13178,-0.193787 -0.13177,0 -0.13177,0.193787 0,0.186035 0.13177,0.186035 0.13178,0 0.13178,-0.186035 z m -1.67432,-0.341065 q 0,-0.379821 -0.37982,-0.379821 -0.37982,0 -0.37982,0.379821 0,0.379822 0.37982,0.379822 0.37982,0 0.37982,-0.379822 z m 0.7674,1.185975 q 0,-0.302308 -0.2558,-0.302308 -0.24805,0 -0.24805,0.302308 0,0.310058 0.24805,0.310058 0.2558,0 0.2558,-0.310058 z"
         style="-inkscape-font-specification:HOLE"
         id="path151428" />
      <path
         d="m 148.73958,77.020962 h -2.17816 q -0.19379,-0.441833 -0.2558,-0.961181 -0.45734,0.573608 -0.89917,0.813904 -0.61237,0.325561 -1.43402,0.325561 -1.0232,0 -1.61231,-0.612366 -0.58911,-0.620117 -0.58911,-1.64331 0,-0.999939 0.46509,-1.550293 0.44183,-0.5271 1.42627,-0.782898 0.95343,-0.248047 1.28674,-0.356568 0.70539,-0.217041 1.23248,-0.48059 0,-0.511597 -0.14727,-0.728638 -0.17829,-0.271301 -0.65113,-0.271301 -0.5736,0 -0.86041,0.232544 -0.21704,0.186035 -0.35657,0.697631 L 141.9493,71.40115 q 0.22479,-1.356506 1.04644,-1.945617 0.66663,-0.480591 2.08515,-0.480591 0.96893,0 1.46502,0.10852 0.81391,0.170533 1.26349,0.682129 0.63562,0.720886 0.63562,2.108399 v 3.472656 q 0,0.891418 0.29456,1.674316 z m -1.55029,-7.046081 q 0,-0.248047 -0.34107,-0.248047 -0.33331,0 -0.33331,0.248047 0,0.255798 0.33331,0.255798 0.34107,0 0.34107,-0.255798 z m 0.60461,0.767395 q 0,-0.193787 -0.18604,-0.193787 -0.17828,0 -0.17828,0.193787 0,0.193786 0.17828,0.193786 0.18604,0 0.18604,-0.193786 z m 0.17053,1.108459 q 0,-0.248047 -0.20154,-0.42633 -0.19378,-0.178284 -0.46508,-0.178284 -0.27906,0 -0.47284,0.178284 -0.19379,0.178283 -0.19379,0.42633 0,0.248047 0.19379,0.426331 0.19378,0.178284 0.47284,0.178284 0.2713,0 0.46508,-0.178284 0.20154,-0.178284 0.20154,-0.426331 z m -1.96112,-1.751831 q 0,-0.224792 -0.19379,-0.379822 -0.19378,-0.16278 -0.46508,-0.16278 -0.27906,0 -0.47284,0.16278 -0.19379,0.15503 -0.19379,0.379822 0,0.224793 0.19379,0.387573 0.19378,0.15503 0.47284,0.15503 0.2713,0 0.46508,-0.15503 0.19379,-0.16278 0.19379,-0.387573 z m -1.68982,-0.341064 q 0,-0.201538 -0.21704,-0.201538 -0.21704,0 -0.21704,0.201538 0,0.209289 0.21704,0.209289 0.21704,0 0.21704,-0.209289 z m 3.06958,4.02301 q 0,-0.310059 -0.40307,-0.310059 -0.39533,0 -0.39533,0.310059 0,0.31781 0.39533,0.31781 0.40307,0 0.40307,-0.31781 z m -1.64331,-0.999939 q 0,-0.255798 -0.2558,-0.255798 -0.24804,0 -0.24804,0.255798 0,0.255798 0.24804,0.255798 0.2558,0 0.2558,-0.255798 z m -2.17041,-2.077393 q 0,-0.472839 -0.44958,-0.472839 -0.44959,0 -0.44959,0.472839 0,0.47284 0.44959,0.47284 0.44958,0 0.44958,-0.47284 z m 4.72839,4.953187 q 0,-0.279053 -0.19378,-0.47284 -0.18604,-0.193786 -0.45734,-0.193786 -0.2713,0 -0.46509,0.193786 -0.18603,0.193787 -0.18603,0.47284 0,0.271301 0.18603,0.465087 0.19379,0.193787 0.46509,0.193787 0.2713,0 0.45734,-0.193787 0.19378,-0.193786 0.19378,-0.465087 z m -2.11615,-1.883606 v -0.488343 q -0.44183,0.20929 -0.99993,0.395325 -1.08521,0.37207 -1.08521,1.038696 0,0.806153 0.75189,0.806153 0.86042,0 1.19373,-0.837159 0.13952,-0.356567 0.13952,-0.914672 z m -2.08514,-0.07752 q 0,-0.441834 -0.49609,-0.441834 -0.4961,0 -0.4961,0.441834 0,0.449585 0.4961,0.449585 0.49609,0 0.49609,-0.449585 z m 1.47278,2.3797 q 0,-0.217041 -0.21704,-0.217041 -0.21704,0 -0.21704,0.217041 0,0.217041 0.21704,0.217041 0.21704,0 0.21704,-0.217041 z M 144.0732,75.81948 q 0,-0.26355 -0.18604,-0.449585 -0.17828,-0.186035 -0.44183,-0.186035 -0.26355,0 -0.44959,0.186035 -0.17828,0.186035 -0.17828,0.449585 0,0.271302 0.17828,0.457337 0.18604,0.186035 0.44959,0.186035 0.26355,0 0.44183,-0.186035 0.18604,-0.186035 0.18604,-0.457337 z"
         style="-inkscape-font-specification:HOLE"
         id="path151430" />
      <path
         d="m 122.94269,86.3222 q -0.39791,1.953363 -2.20141,1.953363 -1.22473,0 -1.8035,-0.661456 -0.66146,-0.744138 -0.66146,-2.061883 0,-1.312577 0.64079,-2.056716 0.26871,-0.310057 0.55293,-0.465086 0.45475,-0.242879 1.15755,-0.242879 1.80867,0 2.23758,1.803502 l -1.45727,0.253214 q -0.13952,-0.676959 -0.7338,-0.676959 -0.85783,0 -0.85783,1.441768 0,0.506427 0.16537,0.857826 0.21704,0.459919 0.67179,0.459919 0.62011,0 0.82165,-0.826821 z m -0.65112,-2.253085 q 0,-0.175699 -0.14986,-0.299722 -0.1447,-0.129191 -0.3514,-0.129191 -0.20671,0 -0.3514,0.129191 -0.1447,0.124023 -0.1447,0.299722 0,0.175699 0.1447,0.299722 0.14469,0.124023 0.3514,0.124023 0.2067,0 0.3514,-0.124023 0.14986,-0.124023 0.14986,-0.299722 z m -1.27124,-0.563271 q 0,-0.217041 -0.28422,-0.217041 -0.27905,0 -0.27905,0.217041 0,0.21704 0.27905,0.21704 0.28422,0 0.28422,-0.21704 z m -0.80615,0.449583 q 0,-0.08785 -0.0827,-0.08785 -0.0775,0 -0.0775,0.08785 0,0.08785 0.0775,0.08785 0.0827,0 0.0827,-0.08785 z m -0.63045,-0.320393 q 0,-0.139526 -0.11886,-0.139526 -0.11885,0 -0.11885,0.139526 0,0.134359 0.11885,0.134359 0.11886,0 0.11886,-0.134359 z m 2.89904,3.35379 q 0,-0.165364 -0.13953,-0.284219 -0.13952,-0.118856 -0.33589,-0.118856 -0.19637,0 -0.3359,0.118856 -0.13952,0.118855 -0.13952,0.284219 0,0.170532 0.13952,0.289387 0.13953,0.113688 0.3359,0.113688 0.19637,0 0.33589,-0.113688 0.13953,-0.118855 0.13953,-0.289387 z m -2.67166,-2.428785 q 0,-0.175699 -0.13436,-0.294554 -0.12919,-0.124023 -0.31523,-0.124023 -0.18603,0 -0.32039,0.124023 -0.12919,0.118855 -0.12919,0.294554 0,0.170532 0.12919,0.294555 0.13436,0.124023 0.32039,0.124023 0.18604,0 0.31523,-0.124023 0.13436,-0.124023 0.13436,-0.294555 z m -0.25839,1.080034 q 0,-0.273884 -0.27905,-0.273884 -0.28422,0 -0.28422,0.273884 0,0.273885 0.28422,0.273885 0.27905,0 0.27905,-0.273885 z m 1.51412,1.710485 q 0,-0.186035 -0.17053,-0.186035 -0.16537,0 -0.16537,0.186035 0,0.186035 0.16537,0.186035 0.17053,0 0.17053,-0.186035 z m -2.28409,-1.808669 q 0,-0.19637 -0.18087,-0.19637 -0.1757,0 -0.1757,0.19637 0,0.191202 0.1757,0.191202 0.18087,0 0.18087,-0.191202 z m 1.09553,1.281571 q 0,-0.186035 -0.13435,-0.315225 -0.13436,-0.129191 -0.32556,-0.129191 -0.19121,0 -0.32556,0.129191 -0.13436,0.12919 -0.13436,0.315225 0,0.180867 0.13436,0.310058 0.13435,0.12919 0.32556,0.12919 0.1912,0 0.32556,-0.12919 0.13435,-0.129191 0.13435,-0.310058 z m 0.5116,1.043861 q 0,-0.186035 -0.16536,-0.186035 -0.17054,0 -0.17054,0.186035 0,0.186034 0.17054,0.186034 0.16536,0 0.16536,-0.186034 z"
         style="-inkscape-font-specification:HOLE"
         id="path151432" />
      <path
         d="m 127.88811,88.15154 h -1.44177 v -0.847491 q -0.30489,0.485757 -0.59428,0.702798 -0.36173,0.263549 -0.86816,0.263549 -1.36425,0 -1.36425,-2.02571 v -3.338287 h 1.55545 v 2.883536 q 0,0.909502 0.53744,0.909502 0.63045,0 0.63045,-1.266069 v -2.526969 h 1.54512 z m -0.30489,-4.821396 q 0,-0.118855 -0.12403,-0.118855 -0.12919,0 -0.12919,0.118855 0,0.118856 0.12919,0.118856 0.12403,0 0.12403,-0.118856 z m -0.19637,0.625283 q 0,-0.273884 -0.25322,-0.273884 -0.25321,0 -0.25321,0.273884 0,0.273884 0.25321,0.273884 0.25322,0 0.25322,-0.273884 z m 0.0207,1.105872 q 0,-0.341063 -0.30489,-0.341063 -0.29973,0 -0.29973,0.341063 0,0.346231 0.29973,0.346231 0.30489,0 0.30489,-0.346231 z m 0.13952,0.961179 q 0,-0.165364 -0.12919,-0.165364 -0.12919,0 -0.12919,0.165364 0,0.165364 0.12919,0.165364 0.12919,0 0.12919,-0.165364 z m -2.52697,-2.299594 q 0,-0.186035 -0.12919,-0.315225 -0.12919,-0.134359 -0.31005,-0.134359 -0.18604,0 -0.31523,0.134359 -0.12919,0.12919 -0.12919,0.315225 0,0.186035 0.12919,0.320393 0.12919,0.12919 0.31523,0.12919 0.18086,0 0.31005,-0.12919 0.12919,-0.134358 0.12919,-0.320393 z m 2.682,3.513986 q 0,-0.206705 -0.13436,-0.351398 -0.12919,-0.149862 -0.31522,-0.149862 -0.18604,0 -0.32039,0.149862 -0.1292,0.144693 -0.1292,0.351398 0,0.206705 0.1292,0.356566 0.13435,0.144694 0.32039,0.144694 0.18603,0 0.31522,-0.144694 0.13436,-0.149861 0.13436,-0.356566 z m -3.20909,-2.563143 q 0,-0.206705 -0.21704,-0.206705 -0.21705,0 -0.21705,0.206705 0,0.201538 0.21705,0.201538 0.21704,0 0.21704,-0.201538 z m 0.48575,1.116208 q 0,-0.201538 -0.13952,-0.341064 -0.13953,-0.139526 -0.3359,-0.139526 -0.20154,0 -0.34106,0.139526 -0.13953,0.139526 -0.13953,0.341064 0,0.196369 0.13953,0.335895 0.13952,0.139526 0.34106,0.139526 0.19637,0 0.3359,-0.139526 0.13952,-0.139526 0.13952,-0.335895 z m 0.96118,1.390091 q 0,-0.12919 -0.0879,-0.12919 -0.0878,0 -0.0878,0.12919 0,0.124023 0.0878,0.124023 0.0879,0 0.0879,-0.124023 z m -1.11621,-0.227375 q 0,-0.253214 -0.25321,-0.253214 -0.25321,0 -0.25321,0.253214 0,0.253213 0.25321,0.253213 0.25321,0 0.25321,-0.253213 z m 0.5116,0.790647 q 0,-0.201538 -0.17053,-0.201538 -0.16537,0 -0.16537,0.201538 0,0.206705 0.16537,0.206705 0.17053,0 0.17053,-0.206705 z"
         style="-inkscape-font-specification:HOLE"
         id="path151434" />
      <path
         d="m 130.38407,88.15154 h -1.55029 v -7.239845 h 1.55029 z m -0.21187,-6.330343 q 0,-0.21704 -0.16537,-0.372069 -0.16536,-0.160196 -0.40307,-0.160196 -0.23771,0 -0.40824,0.160196 -0.16537,0.155029 -0.16537,0.372069 0,0.222208 0.16537,0.377237 0.17053,0.155029 0.40824,0.155029 0.23771,0 0.40307,-0.155029 0.16537,-0.155029 0.16537,-0.377237 z m -0.30489,1.162716 q 0,-0.19637 -0.23255,-0.19637 -0.23254,0 -0.23254,0.19637 0,0.191203 0.23254,0.191203 0.23255,0 0.23255,-0.191203 z m 0.21187,0.563272 q 0,-0.08268 -0.0879,-0.08268 -0.093,0 -0.093,0.08268 0,0.07751 0.093,0.07751 0.0879,0 0.0879,-0.07751 z m -0.14469,0.956011 q 0,-0.149862 -0.11886,-0.253214 -0.11885,-0.10852 -0.28422,-0.10852 -0.16536,0 -0.28422,0.10852 -0.11885,0.103352 -0.11885,0.253214 0,0.149861 0.11885,0.258381 0.11886,0.103352 0.28422,0.103352 0.16537,0 0.28422,-0.103352 0.11886,-0.10852 0.11886,-0.258381 z m 0.14469,0.635618 q 0,-0.129191 -0.0879,-0.129191 -0.093,0 -0.093,0.129191 0,0.12919 0.093,0.12919 0.0879,0 0.0879,-0.12919 z m -0.25838,0.733803 q 0,-0.217041 -0.28939,-0.217041 -0.28939,0 -0.28939,0.217041 0,0.21704 0.28939,0.21704 0.28939,0 0.28939,-0.21704 z m 0.43408,1.369421 q 0,-0.211873 -0.11369,-0.361734 -0.10852,-0.149861 -0.26355,-0.149861 -0.16019,0 -0.26871,0.149861 -0.10852,0.149861 -0.10852,0.361734 0,0.206705 0.10852,0.356566 0.10852,0.149861 0.26871,0.149861 0.15503,0 0.26355,-0.149861 0.11369,-0.149861 0.11369,-0.356566 z m -0.88367,0.480589 q 0,-0.103352 -0.13952,-0.103352 -0.13436,0 -0.13436,0.103352 0,0.103353 0.13436,0.103353 0.13952,0 0.13952,-0.103353 z"
         style="-inkscape-font-specification:HOLE"
         id="path151436" />
      <path
         d="m 134.08926,88.105031 q -0.57361,0.165365 -1.0697,0.165365 -0.50643,0 -0.78548,-0.155029 -0.32039,-0.1757 -0.47025,-0.625283 -0.13436,-0.39274 -0.13436,-1.271236 v -1.844843 h -0.56844 v -1.467606 h 0.56844 V 81.94522 l 1.55029,-1.033525 v 1.994704 h 0.85265 v 1.467606 h -0.85265 v 1.860346 q 0,0.335895 0.0517,0.444415 0.0775,0.170532 0.26355,0.170532 0.17053,0 0.48059,-0.129191 z m -1.21439,-5.880759 q 0,-0.165364 -0.10852,-0.284219 -0.10852,-0.118856 -0.26355,-0.118856 -0.15503,0 -0.26355,0.118856 -0.10852,0.118855 -0.10852,0.284219 0,0.165364 0.10852,0.28422 0.10852,0.118855 0.26355,0.118855 0.15503,0 0.26355,-0.118855 0.10852,-0.118856 0.10852,-0.28422 z m 0.84232,1.576126 q 0,-0.21704 -0.21704,-0.21704 -0.21187,0 -0.21187,0.21704 0,0.217041 0.21187,0.217041 0.21704,0 0.21704,-0.217041 z m -0.91984,-0.439248 q 0,-0.186034 -0.18603,-0.186034 -0.18604,0 -0.18604,0.186034 0,0.186035 0.18604,0.186035 0.18603,0 0.18603,-0.186035 z m -0.60978,0.573607 q 0,-0.144694 -0.11369,-0.248046 -0.11368,-0.103353 -0.27388,-0.103353 -0.16536,0 -0.27905,0.103353 -0.11369,0.103352 -0.11369,0.248046 0,0.149861 0.11369,0.253213 0.11369,0.103353 0.27905,0.103353 0.1602,0 0.27388,-0.103353 0.11369,-0.103352 0.11369,-0.253213 z m 0.47026,1.100704 q 0,-0.258381 -0.24288,-0.258381 -0.24288,0 -0.24288,0.258381 0,0.253214 0.24288,0.253214 0.24288,0 0.24288,-0.253214 z m 0.0413,1.142046 q 0,-0.186035 -0.13953,-0.186035 -0.13436,0 -0.13436,0.186035 0,0.186034 0.13436,0.186034 0.13953,0 0.13953,-0.186034 z m 0.78031,1.431432 q 0,-0.201537 -0.13953,-0.341063 -0.13952,-0.139526 -0.33589,-0.139526 -0.20154,0 -0.34107,0.139526 -0.13952,0.139526 -0.13952,0.341063 0,0.19637 0.13952,0.341064 0.13953,0.139526 0.34107,0.139526 0.19637,0 0.33589,-0.139526 0.13953,-0.144694 0.13953,-0.341064 z"
         style="-inkscape-font-specification:HOLE"
         id="path151438" />
      <path
         d="m 139.09669,88.15154 h -1.44177 v -0.847491 q -0.30489,0.485757 -0.59428,0.702798 -0.36173,0.263549 -0.86816,0.263549 -1.36425,0 -1.36425,-2.02571 v -3.338287 h 1.55545 v 2.883536 q 0,0.909502 0.53744,0.909502 0.63045,0 0.63045,-1.266069 v -2.526969 h 1.54512 z m -0.30489,-4.821396 q 0,-0.118855 -0.12402,-0.118855 -0.1292,0 -0.1292,0.118855 0,0.118856 0.1292,0.118856 0.12402,0 0.12402,-0.118856 z m -0.19637,0.625283 q 0,-0.273884 -0.25322,-0.273884 -0.25321,0 -0.25321,0.273884 0,0.273884 0.25321,0.273884 0.25322,0 0.25322,-0.273884 z m 0.0207,1.105872 q 0,-0.341063 -0.30489,-0.341063 -0.29972,0 -0.29972,0.341063 0,0.346231 0.29972,0.346231 0.30489,0 0.30489,-0.346231 z m 0.13952,0.961179 q 0,-0.165364 -0.12919,-0.165364 -0.12919,0 -0.12919,0.165364 0,0.165364 0.12919,0.165364 0.12919,0 0.12919,-0.165364 z m -2.52696,-2.299594 q 0,-0.186035 -0.1292,-0.315225 -0.12919,-0.134359 -0.31005,-0.134359 -0.18604,0 -0.31523,0.134359 -0.12919,0.12919 -0.12919,0.315225 0,0.186035 0.12919,0.320393 0.12919,0.12919 0.31523,0.12919 0.18086,0 0.31005,-0.12919 0.1292,-0.134358 0.1292,-0.320393 z m 2.68199,3.513986 q 0,-0.206705 -0.13435,-0.351398 -0.1292,-0.149862 -0.31523,-0.149862 -0.18603,0 -0.32039,0.149862 -0.12919,0.144693 -0.12919,0.351398 0,0.206705 0.12919,0.356566 0.13436,0.144694 0.32039,0.144694 0.18603,0 0.31523,-0.144694 0.13435,-0.149861 0.13435,-0.356566 z m -3.20909,-2.563143 q 0,-0.206705 -0.21704,-0.206705 -0.21704,0 -0.21704,0.206705 0,0.201538 0.21704,0.201538 0.21704,0 0.21704,-0.201538 z m 0.48575,1.116208 q 0,-0.201538 -0.13952,-0.341064 -0.13953,-0.139526 -0.3359,-0.139526 -0.20153,0 -0.34106,0.139526 -0.13953,0.139526 -0.13953,0.341064 0,0.196369 0.13953,0.335895 0.13953,0.139526 0.34106,0.139526 0.19637,0 0.3359,-0.139526 0.13952,-0.139526 0.13952,-0.335895 z m 0.96118,1.390091 q 0,-0.12919 -0.0879,-0.12919 -0.0879,0 -0.0879,0.12919 0,0.124023 0.0879,0.124023 0.0879,0 0.0879,-0.124023 z m -1.1162,-0.227375 q 0,-0.253214 -0.25322,-0.253214 -0.25321,0 -0.25321,0.253214 0,0.253213 0.25321,0.253213 0.25322,0 0.25322,-0.253213 z m 0.51159,0.790647 q 0,-0.201538 -0.17053,-0.201538 -0.16537,0 -0.16537,0.201538 0,0.206705 0.16537,0.206705 0.17053,0 0.17053,-0.206705 z"
         style="-inkscape-font-specification:HOLE"
         id="path151440" />
      <path
         d="m 143.17911,83.066595 -0.48059,1.431433 q -0.27388,-0.149861 -0.43408,-0.149861 -0.70796,0 -0.70796,2.04638 v 1.756993 h -1.55546 v -5.245141 h 1.44694 v 0.862994 q 0.3669,-0.98185 0.98185,-0.98185 0.34106,0 0.7493,0.279052 z m -0.49609,0.723468 q 0,-0.263549 -0.23771,-0.263549 -0.23254,0 -0.23254,0.263549 0,0.263549 0.23254,0.263549 0.23771,0 0.23771,-0.263549 z m -0.78548,0.41341 q 0,-0.12919 -0.12402,-0.12919 -0.12919,0 -0.12919,0.12919 0,0.124023 0.12919,0.124023 0.12402,0 0.12402,-0.124023 z m -0.68212,-0.542601 q 0,-0.175699 -0.12403,-0.299722 -0.12402,-0.129191 -0.29972,-0.129191 -0.1757,0 -0.29972,0.129191 -0.11886,0.124023 -0.11886,0.299722 0,0.180867 0.11886,0.310058 0.12402,0.124023 0.29972,0.124023 0.1757,0 0.29972,-0.124023 0.12403,-0.129191 0.12403,-0.310058 z m 0.21187,1.570959 q 0,-0.191202 -0.15503,-0.320393 -0.14986,-0.134358 -0.36173,-0.134358 -0.21705,0 -0.37207,0.134358 -0.14987,0.129191 -0.14987,0.320393 0,0.186035 0.14987,0.320393 0.15502,0.12919 0.37207,0.12919 0.21187,0 0.36173,-0.12919 0.15503,-0.134358 0.15503,-0.320393 z m -0.13436,1.173051 q 0,-0.175699 -0.16536,-0.175699 -0.17054,0 -0.17054,0.175699 0,0.1757 0.17054,0.1757 0.16536,0 0.16536,-0.1757 z m -0.3514,1.064531 q 0,-0.242878 -0.28422,-0.242878 -0.28422,0 -0.28422,0.242878 0,0.248046 0.28422,0.248046 0.28422,0 0.28422,-0.248046 z"
         style="-inkscape-font-specification:HOLE"
         id="path151442" />
      <path
         d="m 148.4656,86.027645 h -3.10058 q 0.0413,0.48059 0.20154,0.723468 0.22737,0.341064 0.58394,0.341064 0.23254,0 0.43408,-0.149862 0.12402,-0.09302 0.26872,-0.330728 l 1.52445,0.180867 q -0.36174,0.816485 -0.86816,1.147213 -0.50126,0.330729 -1.3901,0.330729 -0.75964,0 -1.22472,-0.273885 -0.48059,-0.284219 -0.80099,-0.956011 -0.29972,-0.635618 -0.29972,-1.498611 0,-1.167884 0.5426,-1.91719 0.60978,-0.837156 1.73633,-0.837156 1.59162,0 2.12906,1.328081 0.26355,0.651121 0.26355,1.684646 z m -1.2144,-2.650992 q 0,-0.155029 -0.16019,-0.155029 -0.16537,0 -0.16537,0.155029 0,0.149861 0.16537,0.149861 0.16019,0 0.16019,-0.149861 z m 0.40308,0.842323 q 0,-0.222208 -0.24288,-0.222208 -0.24288,0 -0.24288,0.222208 0,0.227376 0.24288,0.227376 0.24288,0 0.24288,-0.227376 z m -1.00252,-0.692462 q 0,-0.253214 -0.32556,-0.253214 -0.33073,0 -0.33073,0.253214 0,0.258381 0.33073,0.258381 0.32556,0 0.32556,-0.258381 z m 1.49861,1.824172 q 0,-0.201537 -0.15503,-0.341063 -0.15503,-0.144694 -0.37723,-0.144694 -0.21704,0 -0.37207,0.144694 -0.15503,0.139526 -0.15503,0.341063 0,0.19637 0.15503,0.341064 0.15503,0.139526 0.37207,0.139526 0.2222,0 0.37723,-0.139526 0.15503,-0.144694 0.15503,-0.341064 z m -2.52697,-1.870681 q 0,-0.191202 -0.21704,-0.191202 -0.21704,0 -0.21704,0.191202 0,0.19637 0.21704,0.19637 0.21704,0 0.21704,-0.19637 z m 1.27124,1.586462 q -0.0879,-1.085202 -0.75964,-1.085202 -0.3669,0 -0.58911,0.377237 -0.13953,0.242878 -0.1757,0.707965 z m -0.20671,0.346231 q 0,-0.113688 -0.14469,-0.113688 -0.14469,0 -0.14469,0.113688 0,0.113688 0.14469,0.113688 0.14469,0 0.14469,-0.113688 z m 1.30225,1.658808 q 0,-0.129191 -0.11886,-0.129191 -0.12402,0 -0.12402,0.129191 0,0.129191 0.12402,0.129191 0.11886,0 0.11886,-0.129191 z m -1.25574,-1.209225 q 0,-0.07751 -0.0982,-0.07751 -0.093,0 -0.093,0.07751 0,0.08268 0.093,0.08268 0.0982,0 0.0982,-0.08268 z m -1.94819,-1.891351 q 0,-0.118855 -0.17054,-0.118855 -0.16536,0 -0.16536,0.118855 0,0.124023 0.16536,0.124023 0.17054,0 0.17054,-0.124023 z m 0.41857,0.764809 q 0,-0.144694 -0.10852,-0.248046 -0.10335,-0.103353 -0.25321,-0.103353 -0.14986,0 -0.25838,0.103353 -0.10335,0.103352 -0.10335,0.248046 0,0.144693 0.10335,0.253214 0.10852,0.103352 0.25838,0.103352 0.14986,0 0.25321,-0.103352 0.10852,-0.108521 0.10852,-0.253214 z m 0.64596,0.909502 q 0,-0.149861 -0.18087,-0.149861 -0.1757,0 -0.1757,0.149861 0,0.155029 0.1757,0.155029 0.18087,0 0.18087,-0.155029 z m 1.68464,1.886184 q 0,-0.165364 -0.13952,-0.279052 -0.13953,-0.118855 -0.3359,-0.118855 -0.1912,0 -0.33073,0.118855 -0.13952,0.113688 -0.13952,0.279052 0,0.165364 0.13952,0.284219 0.13953,0.113688 0.33073,0.113688 0.19637,0 0.3359,-0.113688 0.13952,-0.118855 0.13952,-0.284219 z m -2.73367,-1.74149 q 0,-0.186035 -0.23254,-0.186035 -0.23255,0 -0.23255,0.186035 0,0.186034 0.23255,0.186034 0.23254,0 0.23254,-0.186034 z m 0.19637,0.589109 q 0,-0.129191 -0.13953,-0.129191 -0.13436,0 -0.13436,0.129191 0,0.129191 0.13436,0.129191 0.13953,0 0.13953,-0.129191 z m 1.11104,1.426265 q 0,-0.170532 -0.19637,-0.170532 -0.1912,0 -0.1912,0.170532 0,0.165364 0.1912,0.165364 0.19637,0 0.19637,-0.165364 z m -0.72864,-0.542601 q 0,-0.144693 -0.10852,-0.248046 -0.10852,-0.103352 -0.26871,-0.103352 -0.15503,0 -0.26872,0.103352 -0.10852,0.103353 -0.10852,0.248046 0,0.149861 0.10852,0.253214 0.11369,0.103353 0.26872,0.103353 0.16019,0 0.26871,-0.103353 0.10852,-0.103353 0.10852,-0.253214 z m -1.04386,-0.583942 q 0,-0.09302 -0.11368,-0.09302 -0.11369,0 -0.11369,0.09302 0,0.08785 0.11369,0.08785 0.11368,0 0.11368,-0.08785 z"
         style="-inkscape-font-specification:HOLE"
         id="path151444" />
    </g>
  </g>
</svg>
